<?xml version="1.0" encoding="UTF-8"?>
<svg id="Layer_4" data-name="Layer 4" xmlns="http://www.w3.org/2000/svg" viewBox="0 0 345.21 274">
  <defs>
    <style>
      .cls-1 {
        fill: #fff;
      }

      .cls-2 {
        fill: #fafafa;
      }

      .cls-3 {
        fill: none;
        stroke: #fff;
        stroke-linejoin: round;
        stroke-width: 4px;
      }
    </style>
  </defs>
  <g>
    <path class="cls-2" d="M60.94,103.51c.03,1.92.36,3.63,1,5.28.68,1.74,1.61,3.23,2.79,4.6s2.44,2.75,3.99,3.69c1.86,1.13,3.6,1.96,5.16,2.62,2.24.95,3.94,1.75,5.04,2.68,1.86,1.58,3.04,3.68,4.46,3.68,0,0,0-.46,0-.47,1.42,0,2.47-1.81,4.33-3.38,1.1-.93,2.88-1.69,5.12-2.64,1.56-.66,3.36-1.37,5.21-2.5,1.55-.95,3.18-1.96,4.39-3.36s2.31-2.98,2.99-4.72.62-3.59.65-5.51c.03-2.07.15-3.93-.23-5.37-.72-2.73-2.29-4.46-3.19-4.39-1.38.1-1.64,3.12-2.13,5.78-.25,1.37-1.26,3.59-2.52,5.55-1.19,1.86-2.83,3.53-4.12,4.44-2.66,1.87-5.62,3.03-7.49,4.54-1.87,1.51-2.52,4.07-3.01,4.07-.01,0,0,.01,0,.03-.49,0-1.3-2.36-3.17-3.87-1.87-1.51-4.73-2.79-7.39-4.66-1.29-.91-2.59-2.84-3.78-4.7-1.26-1.97-2.22-4.07-2.47-5.43-.49-2.66-1.11-5.37-2.48-5.47-.9-.06-1.91,1.56-2.63,4.29-.38,1.44-.55,3.15-.52,5.22Z"/>
    <path class="cls-2" d="M74.14,105.41c2.13,1.24,4.61,1.69,5.85,2.52,1.24.82,2.39,3.11,3.4,3.11,0,0,0-.25,0-.25,1.01,0,2.18-2.02,3.42-2.85,1.24-.82,3.67-1.36,5.8-2.6,1.2-.7,2.97-1.75,4.33-3.6,1.04-1.42,2.25-3.09,2.75-5.06.47-1.83-.19-3.87-.76-5.55-.83-2.48-2.29-4.36-3.23-4.15-1.58.34-.84,2.88-3.03,5.25-2.2,2.37-4.22,2.87-6.28,4.45-2.06,1.58-2.57,3.29-3,3.29-.01,0,.01.48.01.5-.43,0-.68-2.52-2.74-4.1-2.06-1.58-4.48-1.61-6.68-3.99-2.2-2.37-1.38-4.74-2.96-5.08-.94-.2-2.73,1.23-3.56,3.72-.56,1.68-.7,3.82-.23,5.65.51,1.97,1.38,3.83,2.42,5.25,1.35,1.85,3.31,2.79,4.51,3.49Z"/>
    <path class="cls-2" d="M76.92,91.11c2.55,1.45,3.24,1.16,4.44,2.01,1.2.85,1.33,1.74,2.03,1.74,0,0,0,.17,0,.16.7,0,.95-.9,2.15-1.75,1.2-.85,1.81-.66,4.36-2.11,2.55-1.45,4-4.38,4.15-6.83.15-2.45-1.68-4.97-2.53-4.82-.85.15-1.2,2.22-2.25,3.47-1.05,1.25-1.87.85-3.82,2.2-1.95,1.35-1.5,2.93-2.06,2.93-.01,0,0-.31,0-.29-.55,0-.17-1.17-2.12-2.52-1.95-1.35-2.73-1.03-3.78-2.28-1.05-1.25-1.32-3.68-2.17-3.83-.85-.15-3.18,2.74-3.03,5.19.15,2.45,2.09,5.28,4.63,6.73Z"/>
    <path class="cls-2" d="M83.39,82.74s0-.38,0-.39c1.1,0,3.14-2.68,5.04-4.78s3.93-5.32,3.53-8.32-3.4-4.95-6.05-3.55-2.2,4.21-2.5,4.21c-.01,0-.02-.48-.02-.47-.3,0,.04-2.11-2.61-3.51s-5.57.35-5.97,3.35,1.34,6.5,3.24,8.6,4.25,4.86,5.35,4.86Z"/>
    <path class="cls-2" d="M114.72,94.82c-1.65-2.27-3.18-4.1-4.94-5.07-3.28-1.81-6.18-1.51-6.63-.42-.69,1.67,2.46,2.78,4.24,4.85.8.93,1.84,3.03,2.54,5.65.47,1.77.51,3.8.15,6.09-.29,1.82-.47,3.94-1.64,5.97-1.04,1.81-2.14,3.37-3.19,4.65-1.39,1.7-3,2.73-4.24,3.69-2.16,1.68-4.01,2.1-4.94,2.39-1.87.59-4.99,1.57-8.34,3.93-3.36,2.36-3.46,5.21-4.35,5.21-.01,0,0,.45,0,.47-.88,0-.93-3.38-4.29-5.74-3.36-2.36-6.76-2.54-8.63-3.14-.93-.29-2.55-1.44-4.71-3.12-1.23-.96-2.48-2.29-3.86-3.99-1.05-1.28-2.57-2.51-3.61-4.31-1.17-2.03-1.43-4.16-1.72-5.97-.36-2.29-.22-4.35.26-6.12.7-2.62,2.02-4.49,2.82-5.43,1.77-2.07,4.57-3.35,3.88-5.02-.45-1.09-3.2-1.35-6.48.46-1.76.97-3.72,2.44-5.37,4.71-1.33,1.83-2.15,4.04-2.61,6.37-.42,2.15-.49,4.49-.2,6.88.27,2.19,1.04,4.37,1.88,6.61.78,2.08,1.71,4.18,2.97,6.19,1.21,1.92,2.63,3.17,4.06,4.23,1.69,1.26,3.29,2.41,5.12,2.98,1.93.6,3.96.76,5.84,1.24s3.62,1.46,5.29,2.54c2.02,1.31,3.53,2.59,4.76,3.8,2.49,2.43,3.87,3.92,4.59,3.92,0,0,0-.23,0-.24.73,0,1.9-1.48,4.39-3.91,1.23-1.21,2.72-2.65,4.74-3.95,1.68-1.08,3.51-1.92,5.47-2.42s3.84-.82,5.77-1.43c1.83-.57,3.78-1.01,5.46-2.27,1.43-1.06,2.76-2.52,3.97-4.44,1.26-2.01,2.1-4.16,2.88-6.25.84-2.24,1.7-4.42,1.97-6.6.29-2.39.3-4.78-.12-6.93-.46-2.33-1.86-4.22-3.19-6.05Z"/>
  </g>
  <path class="cls-1" d="M83.39,63.12c21.65,0,39.2,17.55,39.2,39.2s-17.55,39.2-39.2,39.2-39.2-17.55-39.2-39.2,17.55-39.2,39.2-39.2M83.39,59.12c-23.82,0-43.2,19.38-43.2,43.2s19.38,43.2,43.2,43.2,43.2-19.38,43.2-43.2-19.38-43.2-43.2-43.2h0Z"/>
  <rect class="cls-3" x="2" y="54.1" width="162.77" height="96.43" rx="6.15" ry="6.15"/>
  <path class="cls-3" d="M108.66,53.26h-50.54l5.08-15.2c.31-.92,1.31-1.55,2.46-1.55h35.45c1.15,0,2.15.63,2.46,1.55l5.08,15.2Z"/>
  <g>
    <path class="cls-2" d="M185.8,54.77c1.02,0,1.95.65,1.95,2.04,0,.83-.65,1.76-1.21,3.34-.65,1.86-1.48,5.66-1.48,17.26v19.11c5.57-18.84,18.19-44.45,34.89-44.45,12.25,0,18,9.93,18,24.31,0,24.03-13.27,44.26-30.53,44.26-11.97,0-17.35-9.56-17.35-11.41,0-1.21.83-2.13,1.95-2.13.83,0,1.58,1.02,2.32,2.32,1.67,2.69,4.27,7.52,13.55,7.52,14.75,0,26.07-18.74,26.07-40.27,0-12.62-4.73-20.69-13.73-20.69-16.24,0-27.74,28.67-33.03,46.77-1.3,4.27-2.5,8.17-3.06,12.9-.19,1.58-.83,2.13-2.04,2.13s-2.23-.93-2.23-2.41c0-1.02,1.02-9.28,1.02-38.04,0-13.45,1.02-18.74,2.13-20.69.65-1.21,1.48-1.86,2.78-1.86Z"/>
    <path class="cls-2" d="M241.75,107.48c0,5.2,2.41,7.42,6.12,7.42,5.85,0,12.25-9.19,12.25-20.69,0-5.29-2.6-9.56-7.24-9.56-3.25,0-4.36,1.67-5.2,2.41-.74.65-1.11.93-1.76.93-1.11,0-1.76-.83-1.76-1.67,0-.65.28-1.3.83-1.86,1.02-1.11,3.8-3.06,7.89-3.06,6.4,0,11.04,5.2,11.04,12.99,0,13.45-8.82,23.38-16.42,23.38-5.1,0-9.56-3.43-9.56-10.3,0-8.54,5.57-15.03,8.81-17.54.46-.37,1.48-1.11,2.41-1.11,1.3,0,2.04.93,2.04,1.86,0,1.21-.93,1.67-2.41,2.6-2.23,1.39-7.05,7.05-7.05,14.2Z"/>
    <path class="cls-2" d="M274.32,111.56c4.73-2.51,10.11-4.27,16.05-4.27s8.91,2.41,9.74,3.25c.56.46,1.02,1.11,1.02,1.76,0,.84-.74,1.58-1.67,1.58-.46,0-.93-.37-1.58-.83-1.39-1.11-3.15-2.51-7.52-2.51-4.92,0-12.06,1.76-17.35,5.75-.74.65-1.11,1.11-2.04,1.11s-2.04-.74-2.04-2.32c0-3.43,7.52-12.25,14.38-20.13,2.78-3.06,5.29-6.12,7.24-8.54.09-.09,0-.19-.09-.28-9.56.74-14.75,2.13-17.26,4.64-.65.74-1.21,1.02-2.04,1.02-.93,0-1.67-.74-1.67-1.76,0-.93.65-1.76,1.3-2.41,3.43-3.25,8.54-3.62,18.93-4.92,3.71-.46,5.01-.83,5.85-1.11.46-.19.83-.28,1.3-.28,1.11,0,1.86,1.02,1.86,1.95,0,.83-1.3,1.76-2.32,2.69-7.79,6.96-16.33,16.89-22.08,25.61Z"/>
    <path class="cls-2" d="M308.28,115.46c-2.88,0-7.05-2.04-7.05-8.44,0-7.7,4.17-17.63,7.7-24.03.93-1.67,1.58-2.41,2.78-2.41.93,0,1.86.83,1.86,2.04,0,.65-.28,1.02-1.02,2.13-4.18,6.22-7.15,15.31-7.15,22.27,0,3.9,1.76,5.29,3.43,5.29,4.83,0,12.43-14.38,15.5-22.73.93-2.6,2.04-3.62,3.43-3.62,1.58,0,2.6.65,3.25,2.5,1.11,3.43,1.67,7.24,3.06,14.48l8.07-5.1c.65-.37,1.21-.56,1.67-.56.93,0,1.39.74,1.39,1.58,0,.56-.46,1.21-1.21,1.58-3.06,1.58-5.94,3.25-8.91,5.57-.19.19-.65.74-.56,1.48.37,3.43.56,6.87.56,10.39,0,20.6-8.44,28.3-16.14,28.3-5.85,0-9.84-4.17-9.84-10.21,0-9.28,10.76-21.06,20.69-30.16.28-.28.46-.65.37-1.48-.46-4.18-1.3-7.98-2.51-12.81-4.18,9.74-11.88,23.94-19.39,23.94ZM312.74,135.96c0,4.08,2.23,7.15,6.22,7.15,5.85,0,12.16-6.59,12.16-24.96,0-2.97-.19-5.38-.46-8.54-7.98,7.33-17.91,17.54-17.91,26.35Z"/>
  </g>
  <g>
    <path class="cls-2" d="M198.21,147.1c-1.24.68-2.94.9-4.52.9-6.88,0-12.14-5.17-12.14-12.02s5.3-12.02,12.2-12.02c1.58,0,3.22.22,4.46.84v4.34c-1.27-.62-2.63-.96-4.34-.96-4.4,0-7.71,3.25-7.71,7.81s3.31,7.71,7.71,7.71c1.7,0,3.07-.28,4.34-.9v4.31Z"/>
    <path class="cls-2" d="M202.2,135.98c0-6.85,5.11-12.05,12.02-12.05s12.05,5.2,12.05,12.05-5.11,12.02-12.05,12.02-12.02-5.23-12.02-12.02ZM221.68,135.98c0-4.49-3.16-7.87-7.46-7.87s-7.43,3.38-7.43,7.87,3.1,7.77,7.43,7.77,7.46-3.38,7.46-7.77Z"/>
    <path class="cls-2" d="M236.17,128.36v4.92h7.77v3.96h-7.77v10.25h-4.52v-23.23h12.61v4.09h-8.08Z"/>
    <path class="cls-2" d="M254.07,128.36v4.92h7.77v3.96h-7.77v10.25h-4.52v-23.23h12.61v4.09h-8.08Z"/>
    <path class="cls-2" d="M282.78,143.41v4.09h-15.33v-23.23h15.05v4.09h-10.72v4.92h10.19v3.96h-10.19v6.16h11Z"/>
    <path class="cls-2" d="M303.87,143.41v4.09h-15.33v-23.23h15.05v4.09h-10.72v4.92h10.19v3.96h-10.19v6.16h11Z"/>
  </g>
</svg>